<svg id="Layer_1" data-name="Layer 1" xmlns="http://www.w3.org/2000/svg" viewBox="0 0 500 500"><defs><style>.cls-1{fill:#444;}.cls-2{fill:#ddd;}.cls-3{fill:#2d2d2d;}.cls-4{fill:#c9c9c9;}.cls-5{fill:#d82f23;}.cls-6{fill:#b70808;}.cls-7{fill:#ffc612;}.cls-8{fill:none;stroke:#000;stroke-linecap:round;stroke-linejoin:round;stroke-width:15px;}.cls-9{fill:#54c3ef;}.cls-10{fill:#473121;}</style></defs><title>school</title><rect class="cls-1" x="8.22" y="449.43" width="483.56" height="35.74" rx="7.31" ry="7.31"/><polygon class="cls-2" points="354.3 260.04 250 150.66 145.7 260.04 36.5 260.04 36.5 449.43 463.5 449.43 463.5 260.04 354.3 260.04"/><rect class="cls-1" x="8.22" y="449.43" width="483.56" height="35.74" rx="7.31" ry="7.31"/><polygon class="cls-2" points="354.3 260.04 250 150.66 145.7 260.04 36.5 260.04 36.5 449.43 463.5 449.43 463.5 260.04 354.3 260.04"/><path class="cls-3" d="M484.47,449.43h-36a7.31,7.31,0,0,1,7.31,7.31v21.13a7.31,7.31,0,0,1-7.31,7.31h36a7.31,7.31,0,0,0,7.31-7.31V456.74A7.31,7.31,0,0,0,484.47,449.43Z"/><polygon class="cls-4" points="318.3 260.04 354.3 260.04 250 150.66 232 169.54 318.3 260.04"/><rect class="cls-4" x="427.5" y="260.04" width="36" height="189.39"/><polygon class="cls-5" points="250 150.66 354.3 260.04 393.3 260.04 250 109.77 106.7 260.04 145.7 260.04 250 150.66"/><polygon class="cls-6" points="221.34 139.83 108.13 139.83 8.21 260.04 106.7 260.04 221.34 139.83"/><polygon class="cls-6" points="278.67 139.83 391.87 139.83 491.79 260.04 393.3 260.04 278.67 139.83"/><rect class="cls-7" x="250" y="21.58" width="85.42" height="57.92"/><rect class="cls-8" x="8.22" y="449.43" width="483.56" height="35.74" rx="7.31" ry="7.31"/><polygon class="cls-8" points="354.3 260.04 250 150.66 145.7 260.04 36.5 260.04 36.5 449.43 463.5 449.43 463.5 260.04 354.3 260.04"/><polygon class="cls-8" points="250 150.66 354.3 260.04 393.3 260.04 250 109.77 106.7 260.04 145.7 260.04 250 150.66"/><polygon class="cls-8" points="221.34 139.83 108.13 139.83 8.21 260.04 106.7 260.04 221.34 139.83"/><polygon class="cls-8" points="278.67 139.83 391.87 139.83 491.79 260.04 393.3 260.04 278.67 139.83"/><circle class="cls-7" cx="250" cy="261.71" r="40.39"/><circle class="cls-8" cx="250" cy="261.71" r="40.39"/><polyline class="cls-8" points="250 245.82 250 261.71 264.86 261.71"/><line class="cls-8" x1="250" y1="109.77" x2="250" y2="14.82"/><rect class="cls-8" x="250" y="21.58" width="85.42" height="57.92"/><rect class="cls-9" x="77.7" y="307.1" width="37.07" height="37.07" rx="7.85" ry="7.85"/><rect class="cls-9" x="147.96" y="307.1" width="37.07" height="37.07" rx="7.85" ry="7.85"/><rect class="cls-9" x="77.7" y="378.27" width="37.07" height="37.07" rx="7.85" ry="7.85"/><rect class="cls-9" x="147.96" y="378.27" width="37.07" height="37.07" rx="7.85" ry="7.85"/><rect class="cls-9" x="385.23" y="307.1" width="37.07" height="37.07" rx="7.85" ry="7.85" transform="translate(807.53 651.27) rotate(-180)"/><rect class="cls-9" x="314.97" y="307.1" width="37.07" height="37.07" rx="7.85" ry="7.85" transform="translate(667.02 651.27) rotate(-180)"/><rect class="cls-9" x="385.23" y="378.27" width="37.07" height="37.07" rx="7.85" ry="7.85" transform="translate(807.53 793.6) rotate(-180)"/><rect class="cls-9" x="314.97" y="378.27" width="37.07" height="37.07" rx="7.85" ry="7.85" transform="translate(667.02 793.6) rotate(-180)"/><rect class="cls-8" x="77.7" y="307.1" width="37.07" height="37.07" rx="7.85" ry="7.85"/><rect class="cls-8" x="147.96" y="307.1" width="37.07" height="37.07" rx="7.85" ry="7.85"/><rect class="cls-8" x="77.7" y="378.27" width="37.07" height="37.07" rx="7.85" ry="7.85"/><rect class="cls-8" x="147.96" y="378.27" width="37.07" height="37.07" rx="7.85" ry="7.85"/><rect class="cls-8" x="385.23" y="307.1" width="37.07" height="37.07" rx="7.85" ry="7.85" transform="translate(807.53 651.27) rotate(-180)"/><rect class="cls-8" x="314.97" y="307.1" width="37.07" height="37.07" rx="7.85" ry="7.85" transform="translate(667.02 651.27) rotate(-180)"/><rect class="cls-8" x="385.23" y="378.27" width="37.07" height="37.07" rx="7.85" ry="7.85" transform="translate(807.53 793.6) rotate(-180)"/><rect class="cls-8" x="314.97" y="378.27" width="37.07" height="37.07" rx="7.85" ry="7.85" transform="translate(667.02 793.6) rotate(-180)"/><path class="cls-10" d="M250,335.29h0A28.66,28.66,0,0,1,278.66,364v80.41a0,0,0,0,1,0,0H221.34a0,0,0,0,1,0,0V364A28.66,28.66,0,0,1,250,335.29Z"/><path class="cls-8" d="M250,335.29h0A28.66,28.66,0,0,1,278.66,364v80.41a0,0,0,0,1,0,0H221.34a0,0,0,0,1,0,0V364A28.66,28.66,0,0,1,250,335.29Z"/></svg>