<svg width="60" height="60" viewBox="0 0 60 60" xmlns="http://www.w3.org/2000/svg"><title>2F514CB8-FA02-4C22-BDC4-AC7604EB007C</title><g fill="none" fill-rule="evenodd"><circle fill="#EBBA16" cx="30" cy="30" r="30"/><g fill="#4FB8A3"><path d="M29.846 31.5l-6.465 3.4 1.234-7.2-5.23-5.1 7.228-1.05L29.846 15l3.233 6.55 7.229 1.05-5.231 5.1 1.235 7.2zM13.77 33.615l-3.98 2.092.76-4.43-3.219-3.138 4.449-.646 1.99-4.031 1.989 4.03 4.448.647-3.219 3.138.76 4.43zM45.923 33.615l-3.979 2.092.76-4.43-3.219-3.138 4.449-.646 1.99-4.031 1.989 4.03 4.448.647-3.219 3.138.76 4.43z"/></g></g></svg>